<svg width="500" height="500" viewBox="0 0 500 500" fill="none" xmlns="http://www.w3.org/2000/svg">
<g clip-path="url(#clip0_1584_44)">
<g opacity="0.8">
<mask id="path-1-inside-1_1584_44" fill="white">
<path d="M161.577 125.692C132.878 130.264 108.152 142.366 92.1122 160.137C75.6635 178.533 69.6592 200.612 75.3299 222.239C80.0093 240.085 92.1335 255.612 109.478 266.931C113.299 269.425 117.315 271.59 121.883 273.679C145.582 285.118 174.418 288.688 203.116 284.115C240.655 278.135 264.883 245.539 277.185 224.437C280.093 226.79 283.562 229.054 287.383 231.548C309.93 246.261 343.127 262.095 375.684 256.908C435.304 247.409 473.135 205.331 461.722 160.682C456.051 139.055 439.415 120.583 415.378 108.924C391.679 97.4845 362.844 93.9145 334.145 98.487C296.606 104.467 272.379 137.063 260.076 158.165C237.807 142.285 199.46 119.953 161.577 125.692ZM258.979 168.196L283.426 189.086L286.334 191.439C289.947 194.252 296.476 199.406 304.795 204.835C321.786 215.923 345.974 228.119 367.509 224.701C407.808 218.281 435.795 191.294 429.143 165.871C425.743 152.904 414.692 142.541 397.722 135.948C381.652 129.487 361.958 127.839 343.192 130.841C314.154 135.191 294.952 166.126 287.104 181.172L267.091 164.085C278.224 144.006 300.725 112.546 336.053 106.904C363.091 102.597 389.928 106.21 411.892 116.518C433.304 126.902 447.924 143.165 452.886 162.089C463.236 201.562 428.409 239.771 373.211 248.565C336.432 254.149 297.868 229.875 278.081 214.722L253.634 193.831L250.726 191.478C239.755 182.533 201.563 153.128 170.105 158.14C150.785 161.218 134.053 168.68 122.518 179.516C110.228 190.77 105.419 204.209 108.68 216.65C111.089 225.837 117.427 233.562 127.143 239.902C130.964 242.396 135.332 244.791 140.1 246.573C156.171 253.033 175.864 254.681 194.631 251.68C222.791 247.194 241.98 216.248 249.828 201.203L269.841 218.289C258.709 238.369 236.207 269.829 200.88 275.47C173.841 279.777 147.005 276.164 125.04 265.857C103.628 255.472 88.8078 239.516 83.8461 220.593C78.8844 201.669 84.1451 182.239 98.6129 166.138C113.289 149.719 136.484 138.423 163.532 134.101C200.633 128.762 239.198 153.036 258.985 168.19L258.979 168.196ZM344.569 139.358C361.689 136.63 379.922 138.236 394.396 144.092C408.179 149.498 417.56 157.861 420.113 167.597C425.501 188.147 399.82 210.831 365.051 216.357C339.65 220.404 307.521 197.633 294.817 187.557C301.087 174.16 318.837 143.172 344.569 139.358ZM192.484 243.563C157.704 249.104 122.664 236.093 117.293 215.554C114.74 205.818 118.95 195.576 129.115 186.069C139.48 176.255 155.466 169.198 172.564 166.475C190.783 163.572 212.339 174.505 227.95 184.693C234.196 188.769 239.191 192.484 242.798 195.275C235.968 208.762 217.878 239.532 192.485 243.567L192.484 243.563Z"/>
</mask>
<path d="M161.577 125.692C132.878 130.264 108.152 142.366 92.1122 160.137C75.6635 178.533 69.6592 200.612 75.3299 222.239C80.0093 240.085 92.1335 255.612 109.478 266.931C113.299 269.425 117.315 271.59 121.883 273.679C145.582 285.118 174.418 288.688 203.116 284.115C240.655 278.135 264.883 245.539 277.185 224.437C280.093 226.79 283.562 229.054 287.383 231.548C309.93 246.261 343.127 262.095 375.684 256.908C435.304 247.409 473.135 205.331 461.722 160.682C456.051 139.055 439.415 120.583 415.378 108.924C391.679 97.4845 362.844 93.9145 334.145 98.487C296.606 104.467 272.379 137.063 260.076 158.165C237.807 142.285 199.46 119.953 161.577 125.692ZM258.979 168.196L283.426 189.086L286.334 191.439C289.947 194.252 296.476 199.406 304.795 204.835C321.786 215.923 345.974 228.119 367.509 224.701C407.808 218.281 435.795 191.294 429.143 165.871C425.743 152.904 414.692 142.541 397.722 135.948C381.652 129.487 361.958 127.839 343.192 130.841C314.154 135.191 294.952 166.126 287.104 181.172L267.091 164.085C278.224 144.006 300.725 112.546 336.053 106.904C363.091 102.597 389.928 106.21 411.892 116.518C433.304 126.902 447.924 143.165 452.886 162.089C463.236 201.562 428.409 239.771 373.211 248.565C336.432 254.149 297.868 229.875 278.081 214.722L253.634 193.831L250.726 191.478C239.755 182.533 201.563 153.128 170.105 158.14C150.785 161.218 134.053 168.68 122.518 179.516C110.228 190.77 105.419 204.209 108.68 216.65C111.089 225.837 117.427 233.562 127.143 239.902C130.964 242.396 135.332 244.791 140.1 246.573C156.171 253.033 175.864 254.681 194.631 251.68C222.791 247.194 241.98 216.248 249.828 201.203L269.841 218.289C258.709 238.369 236.207 269.829 200.88 275.47C173.841 279.777 147.005 276.164 125.04 265.857C103.628 255.472 88.8078 239.516 83.8461 220.593C78.8844 201.669 84.1451 182.239 98.6129 166.138C113.289 149.719 136.484 138.423 163.532 134.101C200.633 128.762 239.198 153.036 258.985 168.19L258.979 168.196ZM344.569 139.358C361.689 136.63 379.922 138.236 394.396 144.092C408.179 149.498 417.56 157.861 420.113 167.597C425.501 188.147 399.82 210.831 365.051 216.357C339.65 220.404 307.521 197.633 294.817 187.557C301.087 174.16 318.837 143.172 344.569 139.358ZM192.484 243.563C157.704 249.104 122.664 236.093 117.293 215.554C114.74 205.818 118.95 195.576 129.115 186.069C139.48 176.255 155.466 169.198 172.564 166.475C190.783 163.572 212.339 174.505 227.95 184.693C234.196 188.769 239.191 192.484 242.798 195.275C235.968 208.762 217.878 239.532 192.485 243.567L192.484 243.563Z" fill="black"/>
<path d="M161.577 125.692L157.434 98.3456L157.33 98.3614L157.226 98.3779L161.577 125.692ZM92.1122 160.137L71.5803 141.604L71.5368 141.652L71.4935 141.701L92.1122 160.137ZM75.3299 222.239L102.084 215.224L102.084 215.224L75.3299 222.239ZM121.883 273.679L133.906 248.77L133.646 248.644L133.383 248.524L121.883 273.679ZM203.116 284.115L198.764 256.801L198.764 256.801L203.116 284.115ZM277.185 224.437L294.583 202.935L269.525 182.661L253.291 210.506L277.185 224.437ZM375.684 256.908L371.332 229.593L371.331 229.593L375.684 256.908ZM461.722 160.682L488.519 153.832L488.498 153.749L488.476 153.667L461.722 160.682ZM415.378 108.924L427.45 84.038L427.426 84.0263L427.401 84.0146L415.378 108.924ZM334.145 98.487L338.497 125.801L338.497 125.801L334.145 98.487ZM260.076 158.165L244.017 180.684L268.701 198.287L283.97 172.096L260.076 158.165ZM258.979 168.196L240.994 147.182L216.422 168.212L241.01 189.223L258.979 168.196ZM283.426 189.086L265.457 210.114L265.74 210.355L266.028 210.589L283.426 189.086ZM286.334 191.439L268.937 212.942L269.138 213.105L269.342 213.264L286.334 191.439ZM367.509 224.701L371.845 252.018L371.853 252.017L371.861 252.016L367.509 224.701ZM429.143 165.871L455.901 158.87L455.897 158.856L429.143 165.871ZM397.722 135.948L387.405 161.611L387.555 161.671L387.706 161.73L397.722 135.948ZM343.192 130.841L347.29 158.194L347.425 158.174L347.56 158.152L343.192 130.841ZM287.104 181.172L269.145 202.207L295.563 224.762L311.628 193.963L287.104 181.172ZM267.091 164.085L242.901 150.673L231.94 170.443L249.132 185.12L267.091 164.085ZM336.053 106.904L331.701 79.59L331.691 79.5915L336.053 106.904ZM411.892 116.518L423.962 91.6312L423.803 91.554L423.643 91.4789L411.892 116.518ZM452.886 162.089L479.641 155.074L479.641 155.073L452.886 162.089ZM373.211 248.565L377.363 275.91L377.463 275.895L377.562 275.879L373.211 248.565ZM278.081 214.722L260.113 235.749L260.676 236.231L261.264 236.681L278.081 214.722ZM253.634 193.831L271.602 172.804L271.32 172.563L271.031 172.329L253.634 193.831ZM250.726 191.478L233.248 212.915L233.288 212.948L233.329 212.981L250.726 191.478ZM170.105 158.14L174.456 185.455L174.457 185.455L170.105 158.14ZM122.518 179.516L141.197 199.915L141.328 199.796L141.456 199.675L122.518 179.516ZM108.68 216.65L81.9252 223.664L81.9255 223.665L108.68 216.65ZM140.1 246.573L150.418 220.91L150.1 220.782L149.78 220.663L140.1 246.573ZM194.631 251.68L190.279 224.365L190.271 224.367L190.262 224.368L194.631 251.68ZM249.828 201.203L267.788 180.167L241.37 157.613L225.305 188.411L249.828 201.203ZM269.841 218.289L294.031 231.701L304.992 211.932L287.801 197.254L269.841 218.289ZM200.88 275.47L205.231 302.784L205.241 302.783L200.88 275.47ZM125.04 265.857L112.97 290.743L113.13 290.82L113.29 290.896L125.04 265.857ZM98.6129 166.138L119.186 184.625L119.211 184.598L119.235 184.57L98.6129 166.138ZM163.532 134.101L159.592 106.724L159.38 106.754L159.167 106.788L163.532 134.101ZM258.985 168.19L276.97 189.204L302.918 166.996L275.802 146.231L258.985 168.19ZM344.569 139.358L348.624 166.718L348.772 166.696L348.92 166.672L344.569 139.358ZM394.396 144.092L384.022 169.732L384.159 169.788L384.297 169.842L394.396 144.092ZM420.113 167.597L446.867 160.582L446.867 160.582L420.113 167.597ZM365.051 216.357L360.709 189.041L360.699 189.043L365.051 216.357ZM294.817 187.557L269.766 175.833L260.497 195.639L277.63 209.228L294.817 187.557ZM192.484 243.563L218.143 233.238L209.911 212.779L188.132 216.249L192.484 243.563ZM117.293 215.554L144.051 208.556L144.049 208.548L144.047 208.539L117.293 215.554ZM129.115 186.069L148.009 206.27L148.07 206.212L148.132 206.154L129.115 186.069ZM172.564 166.475L176.914 193.789L176.915 193.789L172.564 166.475ZM242.798 195.275L267.473 207.772L277.797 187.387L259.727 173.402L242.798 195.275ZM192.485 243.567L166.826 253.892L175.055 274.343L196.826 270.883L192.485 243.567ZM157.226 98.3779C123.847 103.696 92.8016 118.094 71.5803 141.604L112.644 178.67C123.503 166.639 141.909 156.833 165.929 153.007L157.226 98.3779ZM71.4935 141.701C49.6549 166.125 40.2639 197.556 48.5754 229.254L102.084 215.224C99.0546 203.669 101.672 190.941 112.731 178.573L71.4935 141.701ZM48.5754 229.254C55.291 254.866 72.3233 275.712 94.3621 290.094L124.594 243.768C111.944 235.513 104.728 225.305 102.084 215.224L48.5754 229.254ZM94.3621 290.094C99.5216 293.461 104.779 296.272 110.383 298.834L133.383 248.524C129.85 246.909 127.077 245.388 124.594 243.768L94.3621 290.094ZM109.86 298.588C139.294 312.795 173.952 316.77 207.468 311.43L198.764 256.801C174.883 260.606 151.87 257.44 133.906 248.77L109.86 298.588ZM207.467 311.43C258.356 303.323 288.248 260.378 301.08 238.368L253.291 210.506C241.518 230.7 222.955 252.947 198.764 256.801L207.467 311.43ZM259.788 245.94C264.012 249.357 268.763 252.424 272.267 254.711L302.499 208.385C298.362 205.684 296.175 204.224 294.583 202.935L259.788 245.94ZM272.267 254.711C296.121 270.277 336.84 291.105 380.036 284.222L371.331 229.593C349.413 233.086 323.739 222.245 302.499 208.385L272.267 254.711ZM380.035 284.222C414.969 278.657 445.504 263.251 465.944 240.43C486.718 217.234 496.814 186.283 488.519 153.832L434.924 167.532C438.042 179.73 434.93 192.143 424.737 203.523C414.209 215.278 396.019 225.66 371.332 229.593L380.035 284.222ZM488.476 153.667C480.332 122.607 457.103 98.4222 427.45 84.038L403.307 133.809C421.726 142.744 431.77 155.503 434.967 167.697L488.476 153.667ZM427.401 84.0146C397.968 69.8072 363.309 65.8325 329.793 71.1726L338.497 125.801C362.378 121.996 385.391 125.162 403.355 133.833L427.401 84.0146ZM329.794 71.1725C278.905 79.2796 249.014 122.224 236.182 144.234L283.97 172.096C295.743 151.903 314.306 129.655 338.497 125.801L329.794 71.1725ZM276.135 135.645C264.028 127.012 246.876 116.119 226.964 108.145C207.17 100.217 182.924 94.4838 157.434 98.3456L165.72 153.039C178.113 151.162 191.982 153.724 206.399 159.498C220.699 165.225 233.855 173.438 244.017 180.684L276.135 135.645ZM241.01 189.223L265.457 210.114L301.394 168.059L276.947 147.168L241.01 189.223ZM266.028 210.589L268.937 212.942L303.731 169.937L300.823 167.584L266.028 210.589ZM269.342 213.264C272.896 216.031 280.268 221.857 289.679 227.998L319.911 181.672C312.683 176.955 306.997 172.474 303.326 169.615L269.342 213.264ZM289.679 227.998C299.163 234.187 311.376 241.177 324.874 246.157C338.172 251.063 354.663 254.745 371.845 252.018L363.174 197.384C358.82 198.075 352.451 197.368 344.022 194.259C335.796 191.224 327.418 186.571 319.911 181.672L289.679 227.998ZM371.861 252.016C396.647 248.067 419.17 237.607 435.062 222.389C450.81 207.309 462.592 184.442 455.901 158.87L402.385 172.873C402.468 173.192 402.596 173.813 402.076 175.207C401.482 176.796 400.005 179.369 396.803 182.435C390.291 188.672 378.67 194.916 363.158 197.387L371.861 252.016ZM455.897 158.856C449.445 134.246 429.493 118.618 407.738 110.166L387.706 161.73C399.892 166.464 402.041 171.562 402.388 172.886L455.897 158.856ZM408.039 110.285C386.594 101.664 361.718 99.867 338.823 103.529L347.56 158.152C362.198 155.811 376.709 157.31 387.405 161.611L408.039 110.285ZM339.093 103.487C315.878 106.965 298.497 120.694 286.912 133.198C275.148 145.895 267.061 159.79 262.581 168.381L311.628 193.963C314.995 187.507 320.433 178.412 327.491 170.793C334.729 162.981 341.467 159.067 347.29 158.194L339.093 103.487ZM305.063 160.137L285.05 143.05L249.132 185.12L269.145 202.207L305.063 160.137ZM291.281 177.497C301.937 158.276 318.825 137.665 340.414 134.217L331.691 79.5915C282.625 87.4264 254.511 129.735 242.901 150.673L291.281 177.497ZM340.404 134.219C362.446 130.707 383.616 133.801 400.142 141.557L423.643 91.4789C396.239 78.6189 363.736 74.4864 331.701 79.59L340.404 134.219ZM399.823 141.404C415.674 149.092 423.657 159.665 426.132 169.104L479.641 155.073C472.192 126.666 450.935 104.712 423.962 91.6312L399.823 141.404ZM426.132 169.104C428.535 178.27 426.305 188.271 417.257 198.123C407.899 208.314 391.471 217.648 368.859 221.25L377.562 275.879C410.15 270.688 438.734 256.52 458.001 235.54C477.579 214.221 487.587 185.38 479.641 155.074L426.132 169.104ZM369.059 221.219C357.791 222.93 344.483 220.219 330.301 214.054C316.355 207.992 303.743 199.536 294.898 192.763L261.264 236.681C272.207 245.061 288.77 256.319 308.248 264.786C327.488 273.15 351.852 279.784 377.363 275.91L369.059 221.219ZM296.05 193.695L271.602 172.804L235.666 214.859L260.113 235.749L296.05 193.695ZM271.031 172.329L268.123 169.976L233.329 212.981L236.237 215.334L271.031 172.329ZM268.204 170.042C262.164 165.117 248.235 154.211 231.014 145.117C214.724 136.515 190.599 126.867 165.753 130.826L174.457 185.455C181.069 184.401 191.768 186.95 205.182 194.033C217.664 200.625 228.317 208.895 233.248 212.915L268.204 170.042ZM165.753 130.826C142.356 134.553 120.069 143.868 103.581 159.357L141.456 199.675C148.037 193.493 159.214 187.883 174.456 185.455L165.753 130.826ZM103.84 159.117C86.2166 175.254 75.3726 198.669 81.9252 223.664L135.435 209.636C135.331 209.24 135.22 208.558 135.718 207.207C136.273 205.704 137.724 203.095 141.197 199.915L103.84 159.117ZM81.9255 223.665C86.5493 241.299 98.3462 254.137 112.027 263.065L142.258 216.739C136.508 212.987 135.629 210.374 135.435 209.635L81.9255 223.665ZM112.027 263.065C117.083 266.365 123.282 269.815 130.421 272.482L149.78 220.663C147.382 219.767 144.844 218.427 142.258 216.739L112.027 263.065ZM129.783 272.235C151.228 280.857 176.105 282.653 198.999 278.992L190.262 224.368C175.624 226.709 161.113 225.21 150.418 220.91L129.783 272.235ZM198.982 278.994C221.837 275.353 238.945 261.449 250.267 249.057C261.831 236.399 269.878 222.571 274.352 213.994L225.305 188.411C221.931 194.879 216.459 204.048 209.426 211.745C202.151 219.709 195.585 223.52 190.279 224.365L198.982 278.994ZM231.869 222.238L251.882 239.325L287.801 197.254L267.788 180.167L231.869 222.238ZM245.652 204.878C234.995 224.098 218.107 244.71 196.518 248.157L205.241 302.783C254.308 294.948 282.422 252.64 294.031 231.701L245.652 204.878ZM196.528 248.155C174.486 251.667 153.317 248.573 136.79 240.818L113.29 290.896C140.693 303.756 173.196 307.888 205.231 302.784L196.528 248.155ZM137.109 240.97C120.914 233.116 112.997 222.718 110.601 213.578L57.0915 227.607C64.6184 256.315 86.3425 277.829 112.97 290.743L137.109 240.97ZM110.601 213.578C108.277 204.716 110.165 194.665 119.186 184.625L78.0397 147.652C58.1256 169.813 49.4916 198.622 57.0915 227.607L110.601 213.578ZM119.235 184.57C128.623 174.067 145.371 165.012 167.896 161.413L159.167 106.788C127.597 111.833 97.9543 125.371 77.9908 147.706L119.235 184.57ZM167.471 161.478C179.008 159.817 192.484 162.625 206.708 168.819C220.708 174.916 233.328 183.379 242.168 190.149L275.802 146.231C264.856 137.848 248.299 126.596 228.795 118.102C209.514 109.705 185.157 103.045 159.592 106.724L167.471 161.478ZM241.001 147.176L240.994 147.182L276.963 189.209L276.97 189.204L241.001 147.176ZM348.92 166.672C361.869 164.609 374.909 166.045 384.022 169.732L404.77 118.453C384.936 110.427 361.509 108.651 340.217 112.043L348.92 166.672ZM384.297 169.842C388.788 171.603 391.492 173.445 392.873 174.698C394.227 175.928 393.729 176.026 393.358 174.613L446.867 160.582C441.072 138.48 421.963 125.194 404.495 118.343L384.297 169.842ZM393.358 174.612C392.3 170.577 395.504 171.418 389.312 176.897C383.73 181.837 373.706 186.975 360.709 189.041L369.392 243.673C391.165 240.213 411.366 231.247 425.97 218.325C439.963 205.943 453.313 185.167 446.867 160.582L393.358 174.612ZM360.699 189.043C356.814 189.661 348.968 188.27 337.617 182.552C327.17 177.288 317.615 170.336 312.005 165.887L277.63 209.228C284.724 214.854 297.585 224.325 312.728 231.954C326.968 239.128 347.887 247.099 369.402 243.671L360.699 189.043ZM319.868 199.281C322.395 193.883 327.171 185.166 333.444 177.807C340.119 169.976 345.461 167.187 348.624 166.718L340.513 111.998C317.945 115.343 301.546 129.955 291.346 141.921C280.743 154.359 273.509 167.835 269.766 175.833L319.868 199.281ZM188.132 216.249C175.176 218.313 162.564 216.787 153.506 213.416C143.187 209.576 143.38 205.988 144.051 208.556L90.5336 222.553C96.5768 245.659 116.976 258.846 134.214 265.261C152.714 272.145 175.012 274.354 196.835 270.878L188.132 216.249ZM144.047 208.539C144.197 209.113 144.254 209.751 144.207 210.342C144.163 210.911 144.044 211.174 144.084 211.077C144.204 210.778 145.035 209.051 148.009 206.27L110.222 165.869C96.118 179.06 84.391 199.125 90.5381 222.569L144.047 208.539ZM148.132 206.154C153.487 201.083 163.85 195.87 176.914 193.789L168.213 139.16C147.082 142.526 125.474 151.427 110.099 165.985L148.132 206.154ZM176.915 193.789C179.336 193.403 184.064 193.747 191.436 196.54C198.508 199.219 205.952 203.365 212.834 207.856L243.066 161.53C234.337 155.833 223.198 149.418 211.035 144.81C199.171 140.315 184.011 136.643 168.212 139.16L176.915 193.789ZM212.834 207.856C218.289 211.416 222.663 214.667 225.87 217.149L259.727 173.402C255.72 170.301 250.104 166.123 243.066 161.53L212.834 207.856ZM218.124 182.779C215.191 188.569 210.145 197.403 203.686 204.868C196.785 212.845 191.325 215.745 188.144 216.251L196.826 270.883C219.038 267.353 235.32 252.851 245.519 241.062C256.161 228.762 263.575 215.469 267.473 207.772L218.124 182.779ZM218.145 233.242L218.143 233.238L166.824 253.888L166.826 253.892L218.145 233.242Z" fill="black" mask="url(#path-1-inside-1_1584_44)"/>
</g>
<path d="M101.942 348H22.8537L19.8293 322.293C22.5513 318.764 28.2472 315.336 36.9171 312.01V170.468C28.348 167.443 22.6521 163.965 19.8293 160.034L22.8537 134.326H91.9612C114.14 134.326 133.345 138.51 149.576 146.878C165.807 155.144 178.308 167.443 187.079 183.775C195.95 200.006 200.386 220.118 200.386 244.112C200.386 268.105 196.404 287.764 188.44 303.088C180.475 318.411 169.134 329.753 154.415 337.112C139.696 344.371 122.205 348 101.942 348ZM95.4393 168.048H81.527V314.278H103.756C114.14 314.278 123.062 312.312 130.522 308.38C137.982 304.348 143.729 297.341 147.761 287.361C151.895 277.38 153.961 263.418 153.961 245.473C153.961 193.856 134.454 168.048 95.4393 168.048ZM419.806 311.707V231.258C419.806 222.992 420.562 210.188 422.074 192.848L422.679 185.439L419.504 185.136C417.185 193.907 414.967 201.77 412.85 208.726C410.733 215.683 408.817 221.731 407.104 226.873L365.972 348H324.84L281.44 226.873C279.524 222.235 277.659 217.044 275.845 211.297C274.131 205.45 272.467 199.099 270.854 192.243L269.04 185.136L265.864 185.439C266.872 194.613 267.578 203.031 267.981 210.692C268.485 218.253 268.737 225.109 268.737 231.258V312.766C276.399 315.589 282.045 319.369 285.674 324.107L282.65 348H222.01L218.835 324.107C222.666 319.369 228.362 315.589 235.923 312.766V169.56C227.454 166.536 221.557 162.756 218.23 158.219L221.254 134.326H291.874L337.089 259.083C340.012 265.837 342.381 272.39 344.196 278.741C346.111 284.992 347.472 290.94 348.279 296.585L349.186 301.878H353.572C354.277 289.377 358.007 275.112 364.762 259.083L407.708 134.326H477.118L480.294 158.219C476.967 162.756 471.07 166.536 462.601 169.56V311.405C470.666 314.631 476.362 318.26 479.689 322.293L476.513 348H405.894L402.869 322.595C405.995 318.563 411.64 314.933 419.806 311.707Z" fill="#125C73"/>
</g>
<defs>
<clipPath id="clip0_1584_44">
<rect width="500" height="500" fill="white"/>
</clipPath>
</defs>
</svg>
